<svg xmlns="http://www.w3.org/2000/svg" id="logo" width="145.5" height="48.27" viewBox="0 0 145.5 48.27">
    <defs>
        <style>
            .cls-1{fill:#fff}
        </style>
    </defs>
    <g id="그룹_5085">
        <g id="SvgjsG13658">
            <path id="패스_6166" d="M0 0h35.448v48.27H0zm1.006 1.006v46.258h33.437V1.006z" class="cls-1"/>
        </g>
        <g id="SvgjsG13659" transform="translate(4.023 3.52)">
            <path id="패스_6167" d="M6.09 323.41l-.549-.183a1.183 1.183 0 0 1-.5-.321 1.1 1.1 0 0 0-.366-.275.523.523 0 0 1-.321-.366l-.183-.458c-.046-.046-.046-.137-.046-.275a2.751 2.751 0 0 1 .092-.733 23.079 23.079 0 0 1 .824-2.839l.412-1.191c.275-.778.87-2.2 1.282-3.159l.366-.87a7.2 7.2 0 0 1 .458-1.053c.183-.458.458-.962.549-1.236.046-.183.137-.366.229-.366.046 0 .046 0 .046-.046l-.046-.092-.092-.092-.321.092-.549-.092c-.641-.092-1.236-.412-1.236-.641v-.046c0-.092 0-.137-.046-.137a1.4 1.4 0 0 1-.229-.412l-.321-.6a1.637 1.637 0 0 1-.183-.87c0-.412.092-.778.229-.778h.046l.365-.086a.753.753 0 0 1 .412-.092h.183l1.832-.092.229-.046.229.046a3.286 3.286 0 0 0 .6-.046l.6-.092c.229-.046.275-.137.824-1.145l.5-1.007a3.445 3.445 0 0 0 .366-.641c.458-.87 1.74-3.159 2.061-3.617l.229-.412a10.665 10.665 0 0 1 1.419-2.2c.046 0 .092 0 .092-.046a3.437 3.437 0 0 1 .6-1.145l.137-.275.5-.824a3.963 3.963 0 0 0 .5-.87l.183-.366c.137-.137.458-.641.778-1.1a16.114 16.114 0 0 0 2.015-3.159.245.245 0 0 1 .137-.183 3.849 3.849 0 0 0 .549-.6l.687-.87.366-.549h.046a.1.1 0 0 0 .092-.092c.046-.046.275-.412.6-.778a3.855 3.855 0 0 0 .6-.916c.046-.229.5-.733.641-.733h.092c.092 0 .229-.229.229-.366a.413.413 0 0 1 .275-.275h.092a.245.245 0 0 0 .183-.137c.137-.092.183-.183.183-.229h-.137c0-.046.183-.183.6-.55.5-.412.824-.6 1.053-.6h.023a1.743 1.743 0 0 1 .733.5c.046.046.092.137.183.137a5.4 5.4 0 0 1 1.419 1.557 2.206 2.206 0 0 1 .6 1.511 12.432 12.432 0 0 1 .046 1.282c-.046.641-.549 3.8-.824 4.9l-2.157 9.129c-.275 1.236-.641 2.656-.733 3.159a3.354 3.354 0 0 0-.183.824.121.121 0 0 0 .137.137l.137.046-.137.046c-.092 0-.137.092-.183.137 0 .092.275.137.458.137.137 0 .229 0 .275-.046l.183-.046a.276.276 0 0 1 .183.046l.183.046.321-.137.275.092.229.046v-.046l.046-.092.092.092.137.046.183-.046.275.092.183-.092a1.382 1.382 0 0 1 .733.229.933.933 0 0 0 .5.092h.321a2.7 2.7 0 0 1 .916.092l-.046.046a.2.2 0 0 0-.183.137v.046c0 .046-.046.092-.137.092s-.229.046-.229.092l.046.092.275-.046c.229 0 .458.046.458.137a6.633 6.633 0 0 1-1.236.137h-.137a.226.226 0 0 1-.137-.046l-.321.092-.183.137.275.046.229-.046.046.137c0 .092.046.183.092.183l.092.046c0 .046-.092.092-.183.092l-.6-.092-.229.046-.321-.046-.733.092-.366-.046-.366.046-.183.046c-.046 0-.092-.046-.137-.092l-.092-.092-.046.046c-.046.046-.092.046-.183.046h-.092c-.137 0-.229 0-.275.046l-.092.046-.183-.092v.137l-.275-.092-.183.046-.137.091.641.275c.046 0 .046-.046.046-.092s.046-.092.137-.092l.046.092v.046l.046.092a.35.35 0 0 0 .229-.092c0-.046.183-.092.321-.137.183 0 .275 0 .275.046v.046c0 .092.046.137.275.137h.412a1.937 1.937 0 0 0 .733-.092c0-.046.229-.092.458-.092a1.91 1.91 0 0 1 .962.183v.046c0 .046-.092.092-.229.092h-.131l-.046-.046.137-.092-.549-.046a1.336 1.336 0 0 0-.412.092 2.109 2.109 0 0 1-.916.137h-1.236l-.275.046-.183-.046-.183.092a.609.609 0 0 1-.321.137h-.137c-.229 0-.275.137-.366.641l-.229 1.465c-.046.458-.137 1.145-.137 1.465l-.137 1.923-.092 1.1a30.882 30.882 0 0 0-.229 3.8l.046 2.335c0 .321-.046.549-.137.549h-.046l-.366.046-.229.092-.092-.046c-.092-.046-.137-.046-.137-.092-.046 0-.046-.046-.046-.092v-.092l-.046-.092a.1.1 0 0 0-.092.092h-.046l-.092-.137a.737.737 0 0 0-.5-.366 1.889 1.889 0 0 1-1.236-1.648v-.092c0-.275 0-.412-.137-.5l-.092-.183.046-.183-.046-.275a1.78 1.78 0 0 1-.092-.687v-1.1a1.087 1.087 0 0 1 .137-.687c.092-.046.092-.092.092-.183l-.092-.549.046-.183-.046-.046c-.046 0-.046-.046-.046-.092 0-.137.092-.321.137-.321a.1.1 0 0 0 .092-.092l-.137-.458a.238.238 0 0 1 .092-.183 2.351 2.351 0 0 0 .092-.733c0-.183 0-.321-.046-.366s-.046-.137-.046-.275c0-.183.046-.412.092-.412a.146.146 0 0 0 .137-.137v-.092l-.183.137-.05-.041.183-.5-.092-.229.092-.046c.092-.046.137-.229.183-.641l.046-.412-.046-.183v-.321c0-.137-.046-.137-.183-.229l-.137-.046a.1.1 0 0 0-.092.092c-.046.092-.412.137-.962.137a12.946 12.946 0 0 0-1.465.046l-1.328.046a4.012 4.012 0 0 1-.916-.091l-.412-.046c-.229 0-.412.046-.412.137-.046.046-.092.046-.183.046h-.549l-1.145.137c-.183 0-.275-.046-.275-.092l-.183-.046a1.771 1.771 0 0 0-.778.183.343.343 0 0 1-.229.046h-.092a.491.491 0 0 0-.275.092l-.366.092c-.092 0-.137.046-.183.183v.046c0 .091.046.137.092.137s.137-.092.183-.183l.092-.137h.046l-.046.183c-.046.137-.092.275-.183.32a.565.565 0 0 0-.183.366c0 .046 0 .092.046.092s.046.046.046.092a1.272 1.272 0 0 1-.321.6c-.092.137-.183.229-.229.229l-.092.046a1.149 1.149 0 0 0-.092.458.37.37 0 0 1-.321.412H10.3a.121.121 0 0 0-.137.137v.046c0 .092.046.137.183.137.092 0 .137.046.137.092a.474.474 0 0 1-.229.32.342.342 0 0 0-.137.137v.092l-.092.412-1.1 2.61a2.455 2.455 0 0 0-.229.5l-.275.733c-.092.275-.183.412-.229.412H8.15c-.046 0-.092.092-.092.183l.046.183-.046.458c-.092.183-.137.458-.183.549-.046.229-.6 2.015-.687 2.2l-.229.641c-.092.275-.137.412-.229.412l-.092-.046-.092.137a.1.1 0 0 1-.092.092H6.41c-.046 0-.137.046-.183.183-.046.092-.046.183-.137.183zm19.827-36.81l.092-.046.046-.046-.046-.046a.168.168 0 0 0-.137.046c-.001.042-.001.092.045.092zm-.275.275a.1.1 0 0 0 .092-.092c0-.046 0-.092-.046-.092h-.046a.238.238 0 0 0-.183.092c0 .046.046.092.137.092h.046zm-1.6-.366a.168.168 0 0 0 .046-.137l-.092.046c-.003.082-.003.082.043.082zm1.74.6l.183-.092c.046-.046.092-.046.092-.092l-.137.046c-.137.046-.229.046-.229.092zm-2.2-.229c.092 0 .183 0 .183-.046l.046-.046-.046-.092a.275.275 0 0 0-.183.046l-.092.092zm-9.342 19.039l.366-.046 1.007-.046-.321-.183.229-.046a.709.709 0 0 1 .366.092h.092c.092 0 .137 0 .183-.046a.343.343 0 0 1 .229-.046c.046 0 .137 0 .137.092 0 .046 0 .137.046.137a17.359 17.359 0 0 0 1.786-.092h.962l1.511-.046c.275 0 .733-.046.733-.137 0-.046.137-.046.275-.046.366 0 .412-.046.458-.549v-.321c-.046 0-.046.046-.092.183l-.046.137-.046-.046.046-.366c.046-.229.092-.366.137-.366l.046.229.092-.275a5.533 5.533 0 0 0 .275-1.557c0-.137 0-.275-.046-.275l-.046-.092h.092c.092 0 .137-.092.183-.229 0-.137 0-.229-.046-.275-.046 0-.092-.092-.092-.183s.046-.183.092-.183a.2.2 0 0 0 .183-.137v-.092h-.046c-.092 0-.092-.046-.092-.092l.092-.092a36.01 36.01 0 0 0 1.236-5.083v-.042a.342.342 0 0 0-.137.137l-.046.046.046-.137c0-.137.046-.229.092-.229l.092.046.092-.092v-.046l-.092-.046-.046-.092.046-.183.092-.137.046.229.046-.092a21.721 21.721 0 0 0 .733-3.068l-.047-.136h.046c.137 0 .321-.549.321-.87v-.092a2.021 2.021 0 0 1 .229-.87 1.724 1.724 0 0 0 .183-.641c0-.046 0-.092-.046-.092h-.092l.092-.183-.137-.092.046-.046a.491.491 0 0 0 .092-.275l.046-.183h.046c.046 0 .137-.137.183-.275v-.321c-.046 0-.092 0-.092-.092l.046-.366c0-.183 0-.275-.046-.275s-.183.137-.366.366c-.183.275-.366.412-.412.412l-.092-.046c-.046 0-.046.046-.046.137a.168.168 0 0 0 .046.137c.092.046.092.092.092.137h-.137q-.069 0-.137.137c0 .046-.137.183-.321.275-.092.046-.137.046-.137.092h.137l-.092.183.046.137H24.5c-.092 0-.092.046-.183.229 0 .046-.092.137-.183.183s-.183.092-.183.137a.453.453 0 0 1-.321.229.662.662 0 0 0-.321.458c-.046.137-.092.229-.137.229h-.046c-.046 0-.092.046-.183.137-.046.092-.137.183-.183.183l-.137-.046-.046.046.092.183a1.339 1.339 0 0 1-.275.458c-.183.229-.275.366-.321.366l-.092-.183-.092.092-.137-.092-.092.046c0 .046.092.137.183.183.046.046.092.092.092.137a1 1 0 0 0-.137.366c-.046.183-.137.275-.229.275a.2.2 0 0 0-.183.137c0 .092 0 .137.046.137l.183-.092-.092.183-.092.046h-.092c-.092 0-.275.229-.412.641a1.39 1.39 0 0 1-.229.458l-.229.412a.985.985 0 0 1-.412.549c-.5.32-.687.458-.687.5h.092v.137c0 .092.046.183.092.183l.092.046h-.092c-.092 0-.092.092-.092.183v.092l-.137-.046-.137.092c-.137.092-.183.137-.183.229l.137.229q0 .069-.137.137c-.046.046-.092.092-.092.137l-.137.092c-.092.046-.137.046-.137.229v.183c0 .137 0 .229-.046.229h-.046c-.092 0-.183.137-.229.275a.79.79 0 0 1-.275.275c-.046.046-.092.092-.092.137v.046l-.183.366.046.137.092.046h-.092a.7.7 0 0 0-.275.183 2.448 2.448 0 0 0-.275.6c-.092.183-.183.275-.229.275s-.046 0-.046.046v.046a.418.418 0 0 1-.137.229.285.285 0 0 0-.183.275c0 .046 0 .092-.046.092-.092 0-.092.046-.092.183s-.046.183-.183.183h-.183c-.137 0-.275 0-.275.092v.046c0 .046.046.091.137.091.046 0 .137-.046.137-.091l.092-.046.046.092c0 .137-.137.366-.229.366h-.046c-.092 0-.183.137-.229.366a10.257 10.257 0 0 1-.87 1.74l-.229.458c0 .137-.046.229-.137.229l-.137.229c0 .092-.046.183-.092.183h-.093v.046l-.183.6v.046zm9.982-18.319c.046 0 .092-.046.137-.183 0-.137 0-.183-.046-.183l-.092.046c-.046.046-.092.092-.092.137v.046c.002.094.048.137.093.137zm-.229.275c.046-.046.092-.092.092-.137v-.046h-.092c-.046.046-.092.092-.092.137s-.001.049.092.049zm.5.321l.092-.092.046-.092h-.046c-.046 0-.092.046-.137.092.003.049.003.096.052.096zm-.962.046l.137-.046c.137-.092.183-.137.183-.183h-.041q-.069 0-.137.137zm1.236.458l.092-.046.046-.046-.092-.046c-.046 0-.092 0-.092.046s.005.092.051.092zm-1.6.137l.183-.137.092-.092-.092-.046a.245.245 0 0 0-.183.137zm.5.412a.168.168 0 0 0 .137-.046c0-.046 0-.092-.046-.092l-.092.046-.046.046zm.5.092a.168.168 0 0 0 .046-.137l-.092.046c0 .092 0 .092.046.092zm-1.786.412c.137 0 .229-.092.412-.366l.229-.366c0-.046 0-.046-.046-.046l-.092.046c-.092.046-.183.092-.183.183a.534.534 0 0 1-.275.275c-.137.137-.183.183-.183.229zm1.74-.183c.046 0 .046-.046.046-.092h-.046l-.046.046v.046zm-2.61-.412v-.137c-.046 0-.046 0-.046.046v.092zm4.029 1.1h-.04v-.046c0-.046 0-.092.046-.092l.046.092zm-2.473-.092c.046 0 .092-.046.092-.137a.779.779 0 0 0-.046-.321v-.092c-.046.046-.046.092-.046.229l-.046.229zm-2.656-1.007v-.137c-.046 0-.046.046-.046.092v.046zm1.191 1.74l.183-.046a.858.858 0 0 0 .275-.321.39.39 0 0 1 .137-.229.467.467 0 0 0 .229-.366c0-.046 0-.092-.046-.092a.7.7 0 0 0-.275.183l-.321.458a1.28 1.28 0 0 0-.229.366c.012.048.012.048.057.048zm1.282-.183c.046 0 .046-.092.046-.137v-.046h-.046l-.046.183zm-1.832-.275v-.092h-.046v.092zm-3.755 7.1a.538.538 0 0 0 .275-.229l.183-.321a16.548 16.548 0 0 1 1.191-1.832c.092-.183.916-1.465 1.007-1.694a7.013 7.013 0 0 1 .6-.87 8.289 8.289 0 0 0 .962-1.557c-.046 0-.137.092-.183.183s-.137.183-.183.183h-.046v.046a.8.8 0 0 1-.137.32 3.542 3.542 0 0 0-.733 1.007.3.3 0 0 1-.183.229.457.457 0 0 0-.183.229c-.046.229-.092.366-.183.366h-.137l.046.092.092.092-.092.092a.357.357 0 0 0-.183.183 1.2 1.2 0 0 1-.275.366 1.624 1.624 0 0 0-.366.549 1 1 0 0 1-.275.458.82.82 0 0 0-.229.321.651.651 0 0 1-.092.275.7.7 0 0 0-.173.271l-.229.32c-.046.092-.137.183-.137.229v.046a.418.418 0 0 1-.137.229 1.215 1.215 0 0 0-.229.275v.046c0 .092 0 .092.046.092zm2.656-6.273a.376.376 0 0 0 .275-.183l.092-.229h-.046c-.092 0-.321.229-.366.321v.046c.01.043.01.043.056.043zm-.366-.183a.406.406 0 0 0 .229-.183c0-.046 0-.046-.046-.046l-.092.046a.245.245 0 0 0-.137.183zm2.381.458l.046-.046v-.046l-.092.046a.045.045 0 0 0 .046.046zm.183.229v-.137c-.046 0-.046 0-.046.046v.091zm2.747 1.007v-.183c.046-.092.046-.137.092-.137a.849.849 0 0 1-.081.318zm-5.266-.962l.092-.046-.046-.091c-.046 0-.046 0-.046.046v.092zm2.015.641v-.137c-.046 0-.046 0-.046.046v.046c.011.044.011.044.057.044zm2.839 1.786l.046-.412c.092-.275.183-.5.229-.5l.046.046-.092.412c-.137.321-.183.458-.229.458zm-5.312-1.557c.046 0 .092-.046.137-.092a.245.245 0 0 0 .137-.183h-.046a.168.168 0 0 0-.137.046l-.046.046v-.046c0-.092 0-.092-.046-.092s-.046.092-.046.183zm-.275.092l.092-.092.046-.092H19l-.137.137c.002.045.002.045.048.045zm.412.275c.046 0 .046-.091.046-.091a.045.045 0 0 0-.046-.046l-.046.092v.046zm-.549.046c.046 0 .046-.092.046-.137a.045.045 0 0 0-.046-.046l-.046.092c.012.043.012.091.058.091zm1.832.824a.238.238 0 0 0 .183-.092.452.452 0 0 0 .092-.275.168.168 0 0 0-.137.046c-.092.092-.183.183-.183.229zm.549-.092h-.046v-.046c0-.092.046-.092.046-.092.046 0 .046 0 .046.046.011-.001.011.091-.034.091zm-2.518.321c.046 0 .046-.092.092-.183v-.137l-.092.046-.046.137zm-.229.275l.046-.092v-.136l-.137.183.046.046h.046zm-.5-.092c.092 0 .092 0 .092-.046-.046 0-.046 0-.046-.046l-.092.046zm.412.687l.092-.046.321-.275h-.131c-.137 0-.229.137-.275.275zm-.275-.366l.046-.046c0-.046 0-.046-.046-.046H18zm1.648.412c0-.046-.046-.092-.092-.137h-.046v.046c.046.046.046.092.092.092zm.092.137a.168.168 0 0 0 .046-.137l-.092.046zm7.28 1.648c.046 0 .046-.046.046-.092l-.046-.046-.046.092a.045.045 0 0 0 .054.045zm-3.068-.458h-.046l.046-.137.046-.092a.343.343 0 0 1-.038.228zm-5.815-1.374l.046-.046-.092-.092-.092-.046v.046a.207.207 0 0 0 .137.137zm.87.962c.046 0 .137-.092.229-.229a.854.854 0 0 0 .229-.458l.046-.046h-.046c-.046 0-.092.091-.229.275-.229.32-.321.412-.321.458zm-1.007-.6c.092 0 .137-.092.137-.183v-.092l-.046.046a.168.168 0 0 1-.124.045l-.092-.046-.092.046-.137.183h.046a.168.168 0 0 0 .137-.046l.092-.091.046.054c0 .087 0 .087.041.087zm-.824.229c.046 0 .137-.092.137-.229l.046-.137-.046-.092-.092.046-.137.412zm.458.046c.046 0 .092 0 .092-.046l.046-.046-.092-.046c-.092 0-.137 0-.137.046v.046l.046.046h.046zm6.09 1.923h-.046v-.046c0-.046 0-.092.046-.092l.046.092zm-7.052-.412a.1.1 0 0 0 .092-.092v-.046l-.092-.046c-.046.046-.092.092-.092.137s0 .046.046.046h.046zm-.229 0l.046-.092a.1.1 0 0 0-.092-.092c-.046 0-.046.046-.046.092zm-.275-.046c.046 0 .046 0 .046-.046l-.092-.137h-.046zm.092 2.106l.412-.549a3.145 3.145 0 0 0 .458-.824v-.046a.2.2 0 0 0-.046-.137l-.137.092-.046.046-.137-.046-.092-.137.092-.183-.137.046a.307.307 0 0 0-.183.321c0 .046 0 .091.046.091s.092-.046.137-.091l.046-.046.046.046v.091a1.652 1.652 0 0 1-.321.87l-.137.275-.046.183zm7.006-.046v-.137c0-.046 0-.092.046-.092v.137zm-7.28-.962c.046 0 .137-.092.229-.229l.092-.183h-.092a.645.645 0 0 0-.275.366zm1.648.183c.046-.046.046-.092.046-.183 0-.046 0-.046-.046-.046l-.046.183zm5.495 1.465v-.183l.092-.183-.046.32zm-7.555-1.786c.046 0 .092-.046.137-.092l.046-.046-.046-.046h-.046a.2.2 0 0 0-.183.137l.046.046zm2.015.87c.046 0 .092-.046.137-.092v-.092l-.092.092zm5.4 1.328l-.046-.046.137-.137c.046 0 .046.046.046.092-.036.05-.081.096-.127.096zm-.137.458v-.092c0-.046.046-.046.092-.046l.046.046-.046.046zm-7.83-1.6l.046-.092c0-.046 0-.092-.046-.092s-.092 0-.092.092zm1.832.366c.046 0 .046-.046.046-.092H16.9l-.046.046v.046zm8.837 2.335l.092-.046-.046-.092a.045.045 0 0 0-.046.046v.092zm-10.989.137a3.292 3.292 0 0 0 .275-.458 4.231 4.231 0 0 1 .412-.6l.137-.275v-.046c0-.046 0-.046.046-.046a2.575 2.575 0 0 0 .458-1.007v-.046c-.046 0-.137.137-.275.366l-.137.32a1.133 1.133 0 0 1-.183.275q-.069 0-.137.137a.755.755 0 0 1-.229.412 4.174 4.174 0 0 0-.366.916v.046zm.046-2.381l.137-.183-.046-.091a.045.045 0 0 0-.046-.046.2.2 0 0 0-.046.137zm.5-.046c.046 0 .092 0 .092-.046l-.092-.046h-.046zm-.229.549v-.046a.045.045 0 0 0-.046-.046l-.092.046zm7.693 1.832h-.046v-.046l.046-.092.046.046s.009.095-.034.095zm-8.288-1.648c.046 0 .046-.046.092-.183v-.183l-.092.046-.092.229c.059.094.059.094.104.094zm1.877.5l.046-.046c.092-.046.092-.092.092-.137h-.092a.1.1 0 0 0-.092.092v.046c.012.052.012.052.059.052zm-2.289-.046c.046 0 .092 0 .092-.046l-.046-.137c-.092 0-.137.046-.137.092a.1.1 0 0 0 .103.098zm8.288 2.7l-.033-.038.046-.046a.168.168 0 0 1 .137-.046l-.046.092zm-8.7-1.832l.229-.137-.092-.046h-.092l-.092.046c0 .092 0 .137.046.137zm1.969.458a.168.168 0 0 0 .137-.046v-.092l-.092.046zm-2.106-.137a.1.1 0 0 0 .092-.092l-.092-.183-.046.137c.012.1.012.146.058.146zm.5 1.419l.137-.183.229-.458a.385.385 0 0 1 .183-.32.3.3 0 0 0 .183-.229v-.046c0-.046 0-.046-.046-.046h-.046c-.046 0-.137.092-.229.229l-.321.458a1.024 1.024 0 0 0-.137.458c0 .092 0 .137.046.137zm1.236-1.053l.046-.046-.046-.092c-.046 0-.046.046-.046.092v.046zm.275.275l.046-.092v-.137c-.046 0-.046.046-.046.091zm9.753 2.244v-.137c-.046 0-.046 0-.046.046v.046zm-10.028-2.015c.046 0 .092-.046.137-.092 0-.046 0-.092-.046-.092l-.137.137zm15.477 3.48l.046-.046a.045.045 0 0 0-.046-.046l-.092.046zm-17.583-4.029c.046 0 .046-.046.046-.092h-.046l-.046.092zm16.8 4.075l.229-.092-.092-.046-.458.046zm-16.255-3.526c.092 0 .137-.046.137-.092a.092.092 0 1 0-.183 0v.092zm11.447 2.747c.046 0 .092-.092.137-.137 0-.092-.046-.137-.092-.137h-.046l-.092.046-.046.137a.1.1 0 0 0 .092.092zm4.991 1.1l.092-.046.046-.092a.168.168 0 0 0-.137.046zm-.687.046l.092-.046-.092-.046H29.4zm1.511.5l-.046-.046.092-.046.046.046c.02.056.02.056-.072.056zm-17.72-3.938l.046-.092-.046-.046c-.046 0-.046 0-.046.046.02.103.02.103.066.103zm1.6.458c.046 0 .046-.092.046-.137v-.046c-.046 0-.046 0-.046.046zm15.431 3.48h-.046a.045.045 0 0 1-.046-.046l.046-.046.092.046c0 .046 0 .046-.046.046zm-1.145-.046v-.183a.1.1 0 0 0-.092-.092H28.8c-.137.046-.229.092-.229.137 0 .092.321.137.458.137zM14.7 303.95c.046 0 .046 0 .046-.046v-.092a.168.168 0 0 0-.137.046c0 .046 0 .092.046.092zm14.79 3.434l.183-.046.046-.046-.183-.046c-.046 0-.137 0-.137.046a.1.1 0 0 0 .089.092zm-1.328-.412v-.046h-.137l.092.046zm2.2.641l-.183-.092.229-.046.229.046a.045.045 0 0 1 .046.046c-.05.046-.183.046-.325.046zm-8.379-1.923l.137-.046c0-.046-.046-.046-.137-.092-.046 0-.137.046-.137.092s.041.046.133.046zm5.54 1.328a.168.168 0 0 0 .046-.137h-.046l-.046.046c-.004.045-.004.091.042.091zm-14.7-1.648c.092 0 .137-.092.183-.229a.983.983 0 0 1 .183-.321l.321-.549.183-.458-.046-.092a.146.146 0 0 0-.137.137l-.275.458a1.008 1.008 0 0 0-.275.549.438.438 0 0 1-.092.321q-.137.069-.137.137zm15.248 1.877a.1.1 0 0 0 .092-.092v-.092c-.046 0-.092.046-.137.092l-.046.046zm-1.374-.137a.276.276 0 0 0 .183-.046v-.046c0-.046 0-.046-.046-.046h-.046l-.092.046-.046.046zm-14.288-3.21c.092 0 .183-.046.183-.137v-.092a.045.045 0 0 0-.046.046l-.183.092zm15.522 3.526s-.046-.092-.092-.092a.046.046 0 0 0-.092 0 .1.1 0 0 0 .092.092zm-13.6-3.022a.168.168 0 0 0 .046-.137l-.092.046c0 .092.046.092.046.092zm5.4 1.145h-.271l.046-.046.092-.046.092.046zm-1.328.046c-.046 0-.092 0-.092-.046l.137-.046h.092v.046c.005.051-.087.051-.133.051zm10.852 2.564h-.092l.046-.046a.168.168 0 0 1 .137-.046h.054c0 .046-.046.092-.137.092zm-16.621-3.755l.092-.046a.045.045 0 0 0-.046-.046h-.092zm-.687 0l.137-.046v-.046l-.046-.092a.1.1 0 0 0-.092.092v.092zm15.568 3.48l-.183-.046.046-.046h.092zm-10.211-2.2h-.092l.046-.092h.183c0 .046-.046.046-.137.092zm-3.3-.641l.046-.092v-.137l-.046.092zm12.638 2.976l.229-.046.092-.046v-.046h-.183a.555.555 0 0 0-.229.046v.046c.007.052.007.052.098.052zm-9.742-2.283c-.092-.046-.137-.046-.137-.092l.229-.046.046.046c0 .046-.092.092-.137.092zm8.425 2.2l.137-.137-.046-.046c-.046 0-.092.046-.137.092 0 .046 0 .092.046.092zm.366.046v-.046h-.141l.092.046zm-9.89-2.152c.092 0 .092 0 .092-.046l-.046-.046h-.092zm10.989 2.656h-.046v-.046c0-.046 0-.092.046-.092zm-14.744-3.022l.092-.046.046-.046-.092-.046c-.046 0-.092 0-.092.046s0 .089.043.089zm.6.275v-.092H12.6v.092zm9.112 2.244c.092 0 .137 0 .137-.046s-.046-.046-.092-.092l-.229.046c-.007.043.038.043.176.088zm-.87-.183l.046-.046a.045.045 0 0 0-.046-.046l-.092.046zm-.229 0l.046-.092-.046-.046a.045.045 0 0 0-.046.046c-.008.092-.008.092.038.092zm.641.183l.092-.046-.092-.046a.168.168 0 0 0-.137.046l-.046.046zm.321.778v-.046a.168.168 0 0 0-.137-.046c-.183 0-.229 0-.229.046l.092.046h.275zm-1.648.046l.092-.046-.046-.046a.681.681 0 0 0-.275.046l-.092.046zm-.687.046c.137 0 .275 0 .275-.046l-.275-.092c-.137 0-.229 0-.275.046zm-1.465.32v-.046a.045.045 0 0 0-.046-.046l-.092.046.092.046zm3.572 1.145v-.137a.2.2 0 0 1 .046-.137zm-9.112-1.465c.046 0 .092 0 .092-.046v-.046a.1.1 0 0 0-.092-.092l-.092-.046c-.092 0-.137.046-.137.092s.046.092.137.137zm9.112 3.343l.046-.092-.046-.046c-.046 0-.046 0-.046.046v.046zm-11.045-1.836a.584.584 0 0 0 .229-.32.462.462 0 0 0 .092-.229l-.137.046a.61.61 0 0 0-.275.412.1.1 0 0 0 .091.091zm-.962-.229c.046 0 .046 0 .046-.046v-.046c0-.046 0-.046.046-.046.092 0 .137-.046.137-.092a.045.045 0 0 0-.046-.046l-.092.046-.183.137a.1.1 0 0 0 .093.094zm-.275 2.885l.092-.046c.092 0 .183-.183.183-.32l.275-.687.366-.733.321-.733-.046-.046c-.092 0-.229.183-.229.321l-.6 1.374-.229.321-.044.133.092.046zm1.694-1.786c.046 0 .137-.092.183-.137l.046-.137a.168.168 0 0 0-.134.044c-.092.046-.183.137-.183.183s-.002.047.089.047zm-2.335 1.053v-.137c-.046 0-.046 0-.046.046v.046zm1.33 1.557c.046 0 .092 0 .092-.046a.275.275 0 0 0-.046-.183H9.8c-.046 0-.046 0-.046.092v.046c-.001.046-.001.091.046.091zm-1.145.229c.046 0 .046-.046.092-.092a.312.312 0 0 0 .137-.229v-.092h-.047c-.046 0-.137.137-.137.275zm-.183.6l.137-.092v-.183h-.046a.1.1 0 0 0-.092.092zm.687.32v-.046H9.02l.092.046zm-.824 0a.168.168 0 0 0 .046-.137l-.092.046zm-.229.5l.046-.046a.491.491 0 0 0 .092-.275l-.046-.046zm-.092.366l.046-.092-.046-.092h-.047c-.046 0-.046 0-.046.046v.046c.046.046.046.092.092.092zm-.275.5q.069 0 .137-.137v-.183q-.069 0-.137.137l-.046.137zm.824.778V317c-.046 0-.046 0-.046.046v.046zm-1.1.046l.092-.046-.046-.366c-.046 0-.046.046-.092.137.001.142.001.233.047.279zm.778.962l.046-.046-.137-.137v.046c.05.096.05.141.092.141z" class="cls-1" transform="translate(-4.121 -282.292)"/>
        </g>
    </g>
    <g id="SvgjsG13660" transform="translate(45.424 12.371)">
        <path id="패스_6168" d="M34.872 200.793c.354.051.253.809-.051.809h-6.292c-.329 0-.379-.758-.076-.809.96-.152 1.921-.531.986-2.729l-.379-.884c-.227-.581-.783-.607-1.592-.607h-5.257c-.758 0-1.314.025-1.542.607l-.354.884c-.935 2.249.025 2.552 1.289 2.729.3.051.253.809-.076.809H16.2c-.329 0-.4-.758-.076-.809 1.061-.152 1.668-.556 2.6-2.729l4.271-9.729a10.947 10.947 0 0 0 1.289-4.3 3.663 3.663 0 0 1 1.87-.379l6.166 14.379c.935 2.2 1.542 2.6 2.552 2.755zm-7.4-5.509c.379 0 .809-.051.657-.379l-3.235-7.683-3.239 7.678c-.152.328.253.379.632.379zm19.675 11.751c-.278 0-.556-.783-.354-.809 1.112-.126 2.35-1.491 2.35-4.473v-14.834c0-1.769-1.036-2.123-2.123-2.274-.2-.025-.051-.733.152-.733h6.545c.2 0 .354.708.152.733-1.087.152-2.1.505-2.1 2.274v14.834c-.002 2.552-2.984 5.282-4.626 5.282zm28.52-5.029a8.858 8.858 0 0 1-9.072-9.174c0-5.08 3.589-9.325 9.123-9.325a8.837 8.837 0 0 1 9.072 9.148c-.004 5.105-3.567 9.351-9.127 9.351zm.935-1.542c2.325 0 5.585-1.491 5.585-6.495 0-5.231-3.589-8.921-7.379-8.921-2.35 0-5.585 1.491-5.585 6.47-.004 5.282 3.559 8.946 7.377 8.946zm30.264 1.542a8.858 8.858 0 0 1-9.072-9.174c0-5.08 3.589-9.325 9.123-9.325a8.837 8.837 0 0 1 9.072 9.148c-.004 5.105-3.568 9.351-9.127 9.351zm.935-1.542c2.325 0 5.585-1.491 5.585-6.495 0-5.231-3.589-8.921-7.379-8.921-2.35 0-5.585 1.491-5.585 6.47-.005 5.282 3.559 8.946 7.378 8.946z" class="cls-1" transform="translate(-15.909 -183.507)"/>
    </g>
</svg>
