<svg xmlns="http://www.w3.org/2000/svg" width="101.892" height="33.803" viewBox="0 0 101.892 33.803">
    <g>
        <g>
            <g>
                <g>
                    <path d="M0 0h24.824v33.8H0zm.7.7v32.4h23.42V.7z" transform="translate(-77 -15.099) translate(42.81 -1.928) translate(34.19 17.027) translate(0)"/>
                </g>
                <g>
                    <path d="M5.5 311.086l-.385-.128a.828.828 0 0 1-.353-.224.772.772 0 0 0-.257-.192.367.367 0 0 1-.224-.257l-.128-.321c-.032-.032-.032-.1-.032-.192a1.926 1.926 0 0 1 .064-.513 16.162 16.162 0 0 1 .577-1.988l.289-.834c.192-.545.609-1.539.9-2.213l.257-.609a5.038 5.038 0 0 1 .321-.738c.128-.321.321-.673.385-.866.032-.128.1-.257.16-.257.032 0 .032 0 .032-.032l-.032-.064-.064-.064-.224.064-.386-.058c-.449-.064-.866-.289-.866-.449v-.032c0-.064 0-.1-.032-.1a.978.978 0 0 1-.16-.289l-.224-.417a1.146 1.146 0 0 1-.128-.609c0-.289.064-.545.16-.545h.032l.257-.064a.527.527 0 0 1 .289-.064h.128l1.283-.064.16-.032.16.032a2.3 2.3 0 0 0 .417-.032l.417-.064c.16-.032.192-.1.577-.8l.353-.705a2.413 2.413 0 0 0 .257-.449c.321-.609 1.218-2.213 1.443-2.533l.16-.289a7.469 7.469 0 0 1 .994-1.539c.032 0 .064 0 .064-.032a2.407 2.407 0 0 1 .417-.8l.1-.192.353-.577a2.775 2.775 0 0 0 .353-.609l.128-.257c.1-.1.321-.449.545-.77a11.284 11.284 0 0 0 1.403-2.219.172.172 0 0 1 .1-.128 2.7 2.7 0 0 0 .385-.417l.481-.609.257-.385h.032a.069.069 0 0 0 .064-.064c.032-.032.192-.289.417-.545a2.7 2.7 0 0 0 .417-.641c.032-.16.353-.513.449-.513h.058c.064 0 .16-.16.16-.257a.289.289 0 0 1 .192-.192h.064a.172.172 0 0 0 .128-.1c.1-.064.128-.128.128-.16h-.1c0-.032.128-.128.417-.385.353-.289.577-.417.738-.417h.032a1.22 1.22 0 0 1 .513.353c.032.032.064.1.128.1a3.785 3.785 0 0 1 .994 1.09 1.545 1.545 0 0 1 .417 1.058 8.706 8.706 0 0 1 .032.9c-.032.449-.385 2.661-.577 3.431l-1.501 6.381c-.192.866-.449 1.86-.513 2.213a2.349 2.349 0 0 0-.128.577.085.085 0 0 0 .1.1l.1.032-.1.032c-.064 0-.1.064-.128.1 0 .064.192.1.321.1.1 0 .16 0 .192-.032l.128-.032a.193.193 0 0 1 .128.032l.128.032.224-.1.192.064.16.032v-.032l.032-.064.064.064.1.032.128-.032.192.064.128-.064a.967.967 0 0 1 .513.16.653.653 0 0 0 .353.064h.221a1.892 1.892 0 0 1 .641.064l-.032.032a.143.143 0 0 0-.128.1v.032c0 .032-.032.064-.1.064s-.16.032-.16.064l.032.064.192-.032c.16 0 .321.032.321.1a4.647 4.647 0 0 1-.866.1h-.1a.158.158 0 0 1-.1-.032l-.224.064-.128.1.192.032.16-.032.032.1c0 .064.032.128.064.128l.064.032c0 .032-.064.064-.128.064l-.417-.064-.16.032-.224-.032-.513.064-.257-.032-.257.032-.128.032c-.032 0-.064-.032-.1-.064l-.064-.064-.032.032c-.032.032-.064.032-.128.032H19.8c-.1 0-.16 0-.192.032l-.064.032-.128-.064v.1l-.192-.064-.128.032-.1.064.449.192c.032 0 .032-.032.032-.064s.032-.064.1-.064l.032.064v.032l.032.064a.245.245 0 0 0 .16-.064c0-.032.128-.064.224-.1.128 0 .192 0 .192.032v.032c0 .064.032.1.192.1h.291a1.357 1.357 0 0 0 .513-.064c0-.032.16-.064.321-.064a1.338 1.338 0 0 1 .673.128v.032c0 .032-.064.064-.16.064h-.1l-.032-.032.1-.064-.385-.032a.936.936 0 0 0-.289.064 1.477 1.477 0 0 1-.641.1h-.866l-.192.032-.128-.032-.128.064a.426.426 0 0 1-.224.1h-.1c-.16 0-.192.1-.257.449l-.16 1.026c-.032.321-.1.8-.1 1.026l-.1 1.347-.064.77a21.627 21.627 0 0 0-.16 2.661l.032 1.635c0 .224-.032.385-.1.385h-.032l-.257.032-.16.064-.064-.032c-.064-.032-.1-.032-.1-.064-.032 0-.032-.032-.032-.064v-.064l-.032-.064a.069.069 0 0 0-.064.064H17.4l-.064-.1a.516.516 0 0 0-.353-.257 1.323 1.323 0 0 1-.866-1.154v-.064c0-.192 0-.289-.1-.353l-.064-.128.032-.128-.032-.192a1.246 1.246 0 0 1-.064-.481v-.77a.761.761 0 0 1 .1-.481c.064-.032.064-.064.064-.128l-.064-.385.032-.128-.032-.032c-.032 0-.032-.032-.032-.064 0-.1.064-.224.1-.224a.069.069 0 0 0 .064-.064l-.1-.321a.167.167 0 0 1 .064-.128 1.646 1.646 0 0 0 .064-.513c0-.128 0-.224-.032-.257s-.032-.1-.032-.192c0-.128.032-.289.064-.289a.1.1 0 0 0 .1-.1v-.064l-.128.1-.032-.032.128-.353-.064-.16.064-.032c.064-.032.1-.16.128-.449l.032-.289-.032-.128v-.224c0-.1-.032-.1-.128-.16l-.1-.032a.069.069 0 0 0-.064.064c-.032.064-.289.1-.673.1a9.064 9.064 0 0 0-1.026.032l-.93.032a2.809 2.809 0 0 1-.641-.064l-.289-.032c-.16 0-.289.032-.289.1-.032.032-.064.032-.128.032h-.385l-.8.1c-.128 0-.192-.032-.192-.064l-.128-.032a1.24 1.24 0 0 0-.545.128.24.24 0 0 1-.16.032H9.8a.344.344 0 0 0-.192.064l-.257.064c-.064 0-.1.032-.128.128v.032c0 .064.032.1.064.1s.1-.064.128-.128l.064-.1h.032l-.032.128c-.032.1-.064.192-.128.224a.4.4 0 0 0-.128.257c0 .032 0 .064.032.064s.032.032.032.064a.891.891 0 0 1-.224.417c-.064.1-.128.16-.16.16l-.064.032a.8.8 0 0 0-.064.321.259.259 0 0 1-.224.289h-.1a.085.085 0 0 0-.1.1v.032c0 .064.032.1.128.1.064 0 .1.032.1.064a.332.332 0 0 1-.16.224.24.24 0 0 0-.1.1v.064l-.064.289-.77 1.828a1.719 1.719 0 0 0-.16.353l-.192.513c-.064.192-.128.289-.16.289h-.03c-.032 0-.064.064-.064.128l.032.128-.032.321c-.064.128-.1.321-.128.385-.032.16-.417 1.411-.481 1.539l-.16.449c-.064.192-.1.289-.16.289l-.064-.032-.064.1a.069.069 0 0 1-.064.064h-.034c-.032 0-.1.032-.128.128-.032.064-.032.128-.1.128zm13.884-25.781l.064-.032.032-.032-.032-.032a.118.118 0 0 0-.1.032c.004.033.004.065.036.065zm-.192.192a.069.069 0 0 0 .064-.064c0-.032 0-.064-.032-.064h-.032a.166.166 0 0 0-.128.064c0 .032.032.064.1.064h.032zm-1.122-.257a.118.118 0 0 0 .032-.1l-.064.032c-.001.07-.001.07.032.07zm1.218.417l.128-.064c.032-.032.064-.032.064-.064l-.1.032c-.1.032-.16.032-.16.064zm-1.539-.16c.064 0 .128 0 .128-.032l.032-.032-.032-.064a.193.193 0 0 0-.128.032l-.064.064zm-6.541 13.339l.257-.032.705-.032-.224-.128.16-.032a.5.5 0 0 1 .257.064h.064c.064 0 .1 0 .128-.032a.24.24 0 0 1 .16-.032c.032 0 .1 0 .1.064 0 .032 0 .1.032.1a12.154 12.154 0 0 0 1.251-.064h.673l1.058-.032c.192 0 .513-.032.513-.1 0-.032.1-.032.192-.032.257 0 .289-.032.321-.385v-.224c-.032 0-.032.032-.064.128l-.032.1-.032-.032.032-.257c.032-.16.064-.257.1-.257l.032.16.064-.192a3.875 3.875 0 0 0 .192-1.09c0-.1 0-.192-.032-.192l-.032-.064h.064c.064 0 .1-.064.128-.16 0-.1 0-.16-.032-.192-.032 0-.064-.064-.064-.128s.032-.128.064-.128a.143.143 0 0 0 .128-.1v-.064h-.032c-.064 0-.064-.032-.064-.064l.064-.064a25.217 25.217 0 0 0 .866-3.559v-.032a.239.239 0 0 0-.1.1l-.032.032.032-.1c0-.1.032-.16.064-.16l.064.032.064-.064v-.032l-.064-.032-.032-.064.032-.128.064-.1.032.16.032-.064a15.211 15.211 0 0 0 .513-2.148l-.032-.1h.032c.1 0 .224-.385.224-.609v-.064a1.416 1.416 0 0 1 .16-.609 1.207 1.207 0 0 0 .128-.449c0-.032 0-.064-.032-.064h-.064l.064-.128-.1-.064.032-.032a.344.344 0 0 0 .064-.192l.032-.128h.032c.032 0 .1-.1.128-.192v-.224c-.032 0-.064 0-.064-.064l.032-.257c0-.128 0-.192-.032-.192s-.128.1-.257.257c-.128.192-.257.289-.289.289l-.064-.032c-.032 0-.032.032-.032.1a.118.118 0 0 0 .032.1c.064.032.064.064.064.1h-.1q-.048 0-.1.1c0 .032-.1.128-.224.192-.064.032-.1.032-.1.064h.1l-.064.128.032.1h-.1c-.064 0-.064.032-.128.16 0 .032-.064.1-.128.128s-.128.064-.128.1a.317.317 0 0 1-.224.16.463.463 0 0 0-.224.321c-.032.1-.064.16-.1.16h-.032c-.032 0-.064.032-.128.1-.032.064-.1.128-.128.128l-.1-.032-.032.032.064.128a.938.938 0 0 1-.192.321c-.128.16-.192.257-.224.257l-.064-.128-.064.064-.1-.064-.064.032c0 .032.064.1.128.128.032.032.064.064.064.1a.7.7 0 0 0-.1.257c-.032.128-.1.192-.16.192a.143.143 0 0 0-.128.1c0 .064 0 .1.032.1l.128-.064-.064.128-.064.032h-.064c-.064 0-.192.16-.289.449a.973.973 0 0 1-.16.321l-.16.289a.689.689 0 0 1-.289.385c-.353.224-.481.321-.481.353h.064v.1c0 .064.032.128.064.128l.064.032h-.064c-.064 0-.064.064-.064.128v.064l-.1-.032-.1.064c-.1.064-.128.1-.128.16l.1.16q0 .048-.1.1c-.032.032-.064.064-.064.1l-.1.064c-.064.032-.1.032-.1.16v.128c0 .1 0 .16-.032.16h-.032c-.064 0-.128.1-.16.192a.553.553 0 0 1-.192.192c-.032.032-.064.064-.064.1v.032l-.128.257.032.1.064.032h-.064a.488.488 0 0 0-.192.128 1.715 1.715 0 0 0-.192.417c-.064.128-.128.192-.16.192s-.032 0-.032.032v.032a.293.293 0 0 1-.1.16.2.2 0 0 0-.128.192c0 .032 0 .064-.032.064-.064 0-.064.032-.064.128s-.032.128-.128.128h-.128c-.1 0-.192 0-.192.064v.032c0 .032.032.064.1.064.032 0 .1-.032.1-.064l.064-.032.032.064c0 .1-.1.257-.16.257h-.032c-.064 0-.128.1-.16.257a7.184 7.184 0 0 1-.609 1.218l-.16.321c0 .1-.032.16-.1.16l-.1.16c0 .064-.032.128-.064.128h-.064v.032l-.128.417v.032zm6.99-12.826c.032 0 .064-.032.1-.128 0-.1 0-.128-.032-.128l-.064.032c-.032.032-.064.064-.064.1v.032c-.004.061.028.093.062.093zm-.16.192c.032-.032.064-.064.064-.1v-.032h-.064c-.032.032-.064.064-.064.1s-.001.03.063.03zm.353.224l.064-.064.032-.064h-.032c-.032 0-.064.032-.1.064.003.038.003.066.035.066zm-.673.032l.1-.032c.1-.064.128-.1.128-.128h-.032q-.048 0-.1.1zm.866.321l.064-.032.032-.032-.064-.032c-.032 0-.064 0-.064.032s-.002.066.031.066zm-1.122.1l.128-.1.064-.064-.064-.032a.172.172 0 0 0-.128.1zm.353.289a.118.118 0 0 0 .1-.032c0-.032 0-.064-.032-.064l-.064.032-.032.032zm.353.064a.118.118 0 0 0 .032-.1l-.064.032c0 .064 0 .064.032.064zm-1.251.289c.1 0 .16-.064.289-.256l.16-.257c0-.032 0-.032-.032-.032l-.064.032c-.064.032-.128.064-.128.128a.374.374 0 0 1-.192.192c-.1.1-.128.128-.128.16zm1.218-.128c.032 0 .032-.032.032-.064h-.032l-.032.032v.032zm-1.828-.289v-.1c-.032 0-.032 0-.032.032v.064zm2.822.77H19.1v-.032c0-.032 0-.064.032-.064l.032.064zm-1.732-.064c.032 0 .064-.032.064-.1a.546.546 0 0 0-.032-.224v-.064c-.032.032-.032.064-.032.16l-.032.16zm-1.86-.705v-.1c-.032 0-.032.032-.032.064v.032zm.834 1.218l.128-.032a.6.6 0 0 0 .192-.224.273.273 0 0 1 .1-.16.327.327 0 0 0 .16-.257c0-.032 0-.064-.032-.064a.488.488 0 0 0-.192.128l-.224.321a.9.9 0 0 0-.16.257c-.005.028-.005.028.027.028zm.9-.128c.032 0 .032-.064.032-.1v-.032h-.032l-.032.128zM15.985 288v-.064h-.032V288zm-2.629 4.97a.377.377 0 0 0 .192-.16l.128-.224a11.584 11.584 0 0 1 .834-1.283c.064-.128.641-1.026.705-1.186a4.912 4.912 0 0 1 .417-.609 5.8 5.8 0 0 0 .673-1.09c-.032 0-.1.064-.128.128s-.1.128-.128.128h-.032v.032a.558.558 0 0 1-.1.224 2.48 2.48 0 0 0-.513.705.213.213 0 0 1-.128.16.32.32 0 0 0-.128.16c-.032.16-.064.257-.128.257h-.1l.032.064.064.064-.064.064a.25.25 0 0 0-.128.128.841.841 0 0 1-.192.257 1.137 1.137 0 0 0-.257.385.7.7 0 0 1-.192.321.574.574 0 0 0-.16.224.456.456 0 0 1-.064.192.488.488 0 0 0-.128.192l-.16.224c-.032.064-.1.128-.1.16v.032a.293.293 0 0 1-.1.16.85.85 0 0 0-.16.192v.032c0 .064 0 .064.032.064zm1.86-4.393a.264.264 0 0 0 .192-.128l.064-.16h-.032c-.064 0-.224.16-.257.224v.032c.001.032.001.032.033.032zm-.257-.128a.284.284 0 0 0 .16-.128c0-.032 0-.032-.032-.032l-.064.032a.172.172 0 0 0-.1.128zm1.667.321l.032-.032v-.038l-.064.032a.031.031 0 0 0 .032.032zm.128.16v-.1c-.032 0-.032 0-.032.032v.064zm1.924.705v-.128c.032-.064.032-.1.064-.1a.594.594 0 0 1-.063.228zm-3.688-.673l.064-.032-.032-.064c-.032 0-.032 0-.032.032v.064zm1.411.449v-.1c-.032 0-.032 0-.032.032v.032c.001.035.001.035.031.035zm1.988 1.251l.032-.289c.064-.192.128-.353.16-.353l.032.032-.064.289c-.1.224-.128.321-.16.321zm-3.72-1.09c.032 0 .064-.032.1-.064a.172.172 0 0 0 .1-.128h-.032a.118.118 0 0 0-.1.032l-.032.032v-.032c0-.064 0-.064-.032-.064s-.032.064-.032.128zm-.192.064l.064-.064.032-.064h-.032l-.1.1c.005.027.005.027.037.027zm.289.192c.032 0 .032-.064.032-.064a.031.031 0 0 0-.032-.032l-.032.064v.032zm-.385.032c.032 0 .032-.064.032-.1a.031.031 0 0 0-.032-.032l-.032.064c.001.035.001.067.033.067zm1.283.577a.166.166 0 0 0 .128-.064.317.317 0 0 0 .064-.192.118.118 0 0 0-.1.032c-.064.064-.128.128-.128.16zm.385-.064h-.032v-.032c0-.064.032-.064.032-.064.032 0 .032 0 .032.032 0-.001 0 .063-.032.063zm-1.764.224c.032 0 .032-.064.064-.128v-.1l-.064.032-.032.1zm-.16.192l.032-.064v-.1l-.1.128.032.032h.032zm-.353-.064c.064 0 .064 0 .064-.032-.032 0-.032 0-.032-.032l-.064.032zm.289.481l.064-.032.224-.192h-.1c-.1 0-.16.1-.192.192zm-.192-.257l.032-.032c0-.032 0-.032-.032-.032h-.032zm1.154.289c0-.032-.032-.064-.064-.1h-.032v.032c.032.032.032.064.064.064zm.064.1a.118.118 0 0 0 .032-.1l-.064.032zm5.1 1.154c.032 0 .032-.032.032-.064l-.032-.032-.032.064a.031.031 0 0 0 .031.029zm-2.148-.321h-.032l.032-.1.032-.064a.24.24 0 0 1-.034.161zm-4.072-.962l.032-.032-.064-.064-.064-.032v.032a.145.145 0 0 0 .1.1zm.609.673c.032 0 .1-.064.16-.16a.6.6 0 0 0 .16-.321l.032-.032H14.9c-.032 0-.064.064-.16.192-.16.224-.224.289-.224.321zm-.705-.417c.064 0 .1-.064.1-.128v-.064l-.032.032a.118.118 0 0 1-.1.032l-.064-.032-.064.032-.1.128h.032a.118.118 0 0 0 .1-.032l.064-.064.032.032c-.002.061-.002.061.03.061zm-.577.16c.032 0 .1-.064.1-.16l.032-.1-.032-.064-.064.032-.1.289zm.321.032c.032 0 .064 0 .064-.032l.032-.032-.064-.032c-.064 0-.1 0-.1.032v.032l.032.032h.032zM17.877 293h-.032v-.032c0-.032 0-.064.032-.064l.032.064zm-4.938-.289a.069.069 0 0 0 .064-.064v-.032l-.064-.032c-.032.032-.064.064-.064.1s0 .032.032.032h.032zm-.16 0l.032-.064a.069.069 0 0 0-.064-.064c-.032 0-.032.032-.032.064zm-.192-.032c.032 0 .032 0 .032-.032l-.064-.1h-.032zm.064 1.475l.289-.385a2.2 2.2 0 0 0 .321-.577v-.032a.14.14 0 0 0-.032-.1l-.1.064-.032.032-.1-.032-.064-.1.064-.128-.1.032a.215.215 0 0 0-.128.224c0 .032 0 .064.032.064s.064-.032.1-.064l.032-.032.032.032v.064a1.156 1.156 0 0 1-.224.609l-.1.192-.032.128zm4.906-.032v-.1c0-.032 0-.064.032-.064v.1zm-5.1-.673c.032 0 .1-.064.16-.16l.064-.128h-.064a.452.452 0 0 0-.192.257zm1.154.128c.032-.032.032-.064.032-.128 0-.032 0-.032-.032-.032l-.032.128zm3.849 1.023v-.128l.064-.128-.032.224zm-5.291-1.251c.032 0 .064-.032.1-.064l.032-.032-.032-.032h-.032a.143.143 0 0 0-.128.1l.032.032zm1.411.609c.032 0 .064-.032.1-.064v-.064l-.064.064zm3.784.93l-.032-.032.1-.1c.032 0 .032.032.032.064-.036.041-.064.073-.1.073zm-.1.321v-.064c0-.032.032-.032.064-.032l.032.032-.032.032zm-5.483-1.122l.032-.064c0-.032 0-.064-.032-.064s-.064 0-.064.064zm1.283.257c.032 0 .032-.032.032-.064h-.032l-.032.032v.032zm6.189 1.635l.064-.032-.032-.064a.031.031 0 0 0-.032.032v.064zm-7.7.1a2.306 2.306 0 0 0 .192-.321 2.962 2.962 0 0 1 .289-.417l.1-.192v-.032c0-.032 0-.032.032-.032a1.8 1.8 0 0 0 .321-.705v-.032c-.032 0-.1.1-.192.257l-.1.224a.793.793 0 0 1-.128.192q-.048 0-.1.1a.529.529 0 0 1-.16.289 2.923 2.923 0 0 0-.257.641v.032zm.032-1.667l.1-.128-.032-.064a.031.031 0 0 0-.032-.032.141.141 0 0 0-.032.1zm.353-.032c.032 0 .064 0 .064-.032l-.064-.032h-.032zm-.16.385v-.032a.031.031 0 0 0-.032-.032l-.064.032zm5.387 1.283h-.025v-.032l.032-.064.032.032s-.004.064-.032.064zm-5.8-1.154c.032 0 .032-.032.064-.128v-.128l-.064.032-.064.16c.035.063.035.063.067.063zm1.315.353l.032-.032c.064-.032.064-.064.064-.1h-.064a.069.069 0 0 0-.064.064v.032c.002.035.002.035.035.035zm-1.6-.032c.032 0 .064 0 .064-.032l-.032-.1c-.064 0-.1.032-.1.064a.069.069 0 0 0 .064.064zm5.8 1.892l-.032-.032.032-.032a.118.118 0 0 1 .1-.032l-.032.064zm-6.092-1.283l.16-.1-.064-.032h-.064l-.064.032c0 .064 0 .1.032.1zm1.379.321a.118.118 0 0 0 .1-.032v-.064l-.064.032zm-1.475-.1a.069.069 0 0 0 .064-.064l-.064-.128-.032.1c.002.063.002.095.034.095zm.353.994l.1-.128.16-.321a.27.27 0 0 1 .128-.224.213.213 0 0 0 .128-.16v-.032c0-.032 0-.032-.032-.032H11.5c-.032 0-.1.064-.16.16l-.224.321a.717.717 0 0 0-.1.321c0 .064 0 .1.032.1zm.866-.737l.032-.032-.032-.064c-.032 0-.032.032-.032.064v.032zm.192.192l.032-.064v-.1c-.032 0-.032.032-.032.064zm6.83 1.571v-.1c-.032 0-.032 0-.032.032v.032zm-7.022-1.411c.032 0 .064-.032.1-.064 0-.032 0-.064-.032-.064l-.1.1zm10.838 2.437l.032-.032a.031.031 0 0 0-.032-.032l-.064.032zm-12.313-2.822c.032 0 .032-.032.032-.064h-.032l-.032.064zm11.768 2.854l.16-.064-.064-.032-.321.032zm-11.383-2.469c.064 0 .1-.032.1-.064a.064.064 0 0 0-.128 0v.064zm8.016 1.924c.032 0 .064-.064.1-.1 0-.064-.032-.1-.064-.1h-.032l-.064.032-.032.1a.069.069 0 0 0 .064.064zm3.5.77l.064-.032.032-.064a.118.118 0 0 0-.1.032zm-.481.032l.064-.032-.064-.032h-.032zm1.058.353l-.032-.032.064-.032.032.032c-.002.034-.002.034-.067.034zM10.5 296.978l.032-.064-.032-.032c-.032 0-.032 0-.032.032.002.064.002.064.032.064zm1.122.321c.032 0 .032-.064.032-.1v-.032c-.032 0-.032 0-.032.032zm10.806 2.437H22.4a.031.031 0 0 1-.032-.032l.032-.032.064.032c0 .032 0 .032-.032.032zm-.8-.032v-.128a.069.069 0 0 0-.064-.064H21.4c-.1.032-.16.064-.16.1 0 .064.224.1.321.1zm-10.1-2.245c.032 0 .032 0 .032-.032v-.064a.118.118 0 0 0-.1.032c0 .032 0 .064.032.064zm10.357 2.4l.128-.032.032-.032-.128-.032c-.032 0-.1 0-.1.032a.069.069 0 0 0 .068.069zm-.93-.289v-.032h-.1l.064.032zm1.539.449l-.128-.064.16-.032.16.032a.031.031 0 0 1 .032.032c-.031.037-.127.037-.223.037zm-5.868-1.347l.1-.032c0-.032-.032-.032-.1-.064-.032 0-.1.032-.1.064s.036.037.101.037zm3.88.93a.118.118 0 0 0 .032-.1h-.032l-.032.032c0 .041 0 .073.032.073zm-10.293-1.154c.064 0 .1-.064.128-.16a.688.688 0 0 1 .128-.224l.224-.385.128-.321-.032-.064a.1.1 0 0 0-.1.1l-.192.321a.706.706 0 0 0-.192.385.307.307 0 0 1-.064.224q-.1.048-.1.1zm10.678 1.315a.069.069 0 0 0 .064-.064v-.064c-.032 0-.064.032-.1.064l-.032.032zm-.962-.1a.193.193 0 0 0 .128-.032v-.032c0-.032 0-.032-.032-.032h-.032l-.064.032-.032.032zm-10-2.245c.064 0 .128-.032.128-.1v-.064a.031.031 0 0 0-.032.032l-.128.064zM20.8 299.9s-.032-.064-.064-.064a.032.032 0 0 0-.064 0 .069.069 0 0 0 .064.064zm-9.523-2.116a.118.118 0 0 0 .032-.1l-.064.032c0 .064.032.064.032.064zm3.784.8h-.192l.032-.032.064-.032.064.032zm-.93.032c-.032 0-.064 0-.064-.032l.1-.032h.064v.032c-.009.029-.073.029-.106.029zm7.6 1.8h-.064l.032-.032a.118.118 0 0 1 .1-.032h.032c0 .032-.032.064-.1.064zm-11.64-2.629l.064-.032a.031.031 0 0 0-.032-.032h-.064zm-.481 0l.1-.032v-.032l-.032-.064a.069.069 0 0 0-.064.064v.064zm10.9 2.437l-.128-.032.032-.032h.064zm-7.151-1.539h-.064l.032-.064h.128c0 .032-.032.032-.1.064zm-2.309-.449l.032-.064v-.1l-.032.064zm8.85 2.084l.16-.032.064-.032v-.032h-.128a.389.389 0 0 0-.16.032v.032c-.003.025-.003.025.064.025zm-6.83-1.6c-.064-.032-.1-.032-.1-.064l.16-.032.032.032c0 .032-.064.064-.1.064zm5.9 1.539l.1-.1-.032-.032c-.032 0-.064.032-.1.064 0 .032 0 .064.032.064zm.257.032v-.032h-.1l.064.032zm-6.927-1.518c.064 0 .064 0 .064-.032l-.032-.032h-.064zm7.7 1.86h-.032v-.033c0-.032 0-.064.032-.064zm-10.332-2.116l.064-.032.032-.032-.064-.032c-.032 0-.064 0-.064.032s0 .064.032.064zm.417.192v-.064h-.032v.064zm6.381 1.571c.064 0 .1 0 .1-.032s-.032-.032-.064-.064l-.16.032c-.004.032.028.032.124.064zm-.609-.128l.032-.032a.031.031 0 0 0-.032-.032l-.064.032zm-.16 0l.032-.064-.032-.032a.031.031 0 0 0-.032.032c0 .064 0 .064.035.064zm.449.128l.064-.032-.064-.032a.118.118 0 0 0-.1.032l-.032.032zm.224.545v-.032a.118.118 0 0 0-.1-.032c-.128 0-.16 0-.16.032l.064.032h.192zm-1.154.032l.064-.032-.032-.032a.476.476 0 0 0-.192.032l-.064.032zm-.481.032c.1 0 .192 0 .192-.032l-.192-.064c-.1 0-.16 0-.192.032zm-1.026.224v-.032a.031.031 0 0 0-.032-.032l-.064.032.064.032zm2.5.8v-.1a.14.14 0 0 1 .032-.1zm-6.38-1.023c.032 0 .064 0 .064-.032v-.032a.069.069 0 0 0-.064-.064l-.064-.032c-.064 0-.1.032-.1.064s.032.064.1.1zm6.381 2.341l.032-.064-.032-.032c-.032 0-.032 0-.032.032v.032zm-7.728-1.283a.409.409 0 0 0 .16-.224.324.324 0 0 0 .064-.16l-.1.032a.427.427 0 0 0-.192.289.069.069 0 0 0 .068.063zm-.673-.16c.032 0 .032 0 .032-.032v-.032c0-.032 0-.032.032-.032.064 0 .1-.032.1-.064a.031.031 0 0 0-.032-.032l-.064.032-.128.1a.069.069 0 0 0 .06.06zm-.192 2.02l.064-.032c.064 0 .128-.128.128-.224L8 303.07l.257-.513.224-.513-.032-.032c-.064 0-.16.128-.16.224l-.417.962-.16.224-.032.1.064.032zm1.183-1.251c.032 0 .1-.064.128-.1l.032-.1a.118.118 0 0 0-.1.032c-.064.032-.128.1-.128.128s.006.04.068.04zm-1.635.738v-.1c-.032 0-.032 0-.032.032v.032zm.93 1.09c.032 0 .064 0 .064-.032a.193.193 0 0 0-.032-.128H8.1c-.032 0-.032 0-.032.064v.032c-.003.032-.003.064.032.064zm-.8.16c.032 0 .032-.032.064-.064a.219.219 0 0 0 .1-.16v-.064h-.035c-.032 0-.1.1-.1.192zm-.128.417l.1-.064v-.128h-.036a.069.069 0 0 0-.064.064zm.481.224v-.032h-.1l.064.032zm-.577 0a.118.118 0 0 0 .032-.1l-.064.032zm-.16.353l.032-.032a.344.344 0 0 0 .064-.192l-.032-.032zm-.064.257l.032-.064-.032-.064h-.032c-.032 0-.032 0-.032.032v.032c.032.032.032.068.064.068zm-.192.353q.048 0 .1-.1v-.128q-.048 0-.1.1l-.032.1zm.577.545v-.1c-.032 0-.032 0-.032.032v.032zm-.77.032l.064-.032-.032-.257c-.032 0-.032.032-.064.1 0 .092 0 .157.032.189zm.545.673l.032-.032-.1-.1v.032c.036.068.036.101.068.101z" transform="translate(-77 -15.099) translate(42.81 -1.928) translate(37.007 19.491) translate(-4.121 -282.292)"/>
                </g>
            </g>
            <g>
                <path d="M29.189 195.612c.248.035.177.566-.035.566h-4.407c-.23 0-.265-.531-.053-.566.672-.106 1.345-.372.69-1.911l-.265-.619c-.159-.407-.549-.425-1.115-.425h-3.682c-.531 0-.92.018-1.08.425L19 193.7c-.655 1.575.018 1.787.9 1.911.212.035.177.566-.053.566H16.11c-.23 0-.283-.531-.053-.566.743-.106 1.168-.389 1.823-1.911l2.991-6.813a7.666 7.666 0 0 0 .9-3.009 2.566 2.566 0 0 1 1.31-.265l4.318 10.07c.655 1.54 1.08 1.823 1.787 1.929zM24 191.754c.265 0 .566-.035.46-.265l-2.265-5.38-2.265 5.38c-.106.23.177.265.442.265zm13.778 8.229c-.195 0-.389-.549-.248-.566.779-.088 1.646-1.044 1.646-3.132V185.9c0-1.239-.726-1.487-1.487-1.593-.142-.018-.035-.513.106-.513h4.584c.142 0 .248.5.106.513-.761.106-1.469.354-1.469 1.593v10.388c.004 1.784-2.084 3.695-3.234 3.695zm19.972-3.522a6.2 6.2 0 0 1-6.353-6.424 6.276 6.276 0 0 1 6.389-6.53 6.189 6.189 0 0 1 6.353 6.406 6.27 6.27 0 0 1-6.385 6.548zm.655-1.08c1.628 0 3.911-1.044 3.911-4.548 0-3.663-2.513-6.247-5.168-6.247-1.646 0-3.911 1.044-3.911 4.531.004 3.699 2.499 6.265 5.172 6.265zm21.193 1.08a6.2 6.2 0 0 1-6.353-6.424 6.276 6.276 0 0 1 6.389-6.53 6.189 6.189 0 0 1 6.353 6.406 6.27 6.27 0 0 1-6.387 6.548zm.655-1.08c1.628 0 3.911-1.044 3.911-4.548 0-3.663-2.513-6.247-5.168-6.247-1.646 0-3.911 1.044-3.911 4.531.004 3.699 2.499 6.265 5.172 6.265z" transform="translate(-77 -15.099) translate(42.81 -1.928) translate(66 25.69) translate(-15.909 -183.507)"/>
            </g>
        </g>
    </g>
</svg>
